<?xml version="1.0" encoding="UTF-8" standalone="no"?>
<!-- Generator: Adobe Illustrator 19.0.1, SVG Export Plug-In . SVG Version: 6.00 Build 0)  -->

<svg
   version="1.1"
   id="Layer_1"
   x="0px"
   y="0px"
   width="224px"
   height="112.3px"
   viewBox="-847 484.7 224 112.3"
   style="enable-background:new -847 484.7 224 112.3;"
   xml:space="preserve"
   sodipodi:docname="face.svg"
   inkscape:version="1.1 (c68e22c387, 2021-05-23)"
   xmlns:inkscape="http://www.inkscape.org/namespaces/inkscape"
   xmlns:sodipodi="http://sodipodi.sourceforge.net/DTD/sodipodi-0.dtd"
   xmlns="http://www.w3.org/2000/svg"
   xmlns:svg="http://www.w3.org/2000/svg"><defs
   id="defs93" /><sodipodi:namedview
   id="namedview91"
   pagecolor="#ffffff"
   bordercolor="#666666"
   borderopacity="1.0"
   inkscape:pageshadow="2"
   inkscape:pageopacity="0.0"
   inkscape:pagecheckerboard="0"
   showgrid="false"
   inkscape:zoom="5.0401786"
   inkscape:cx="117.55536"
   inkscape:cy="72.12046"
   inkscape:window-width="1920"
   inkscape:window-height="1017"
   inkscape:window-x="-8"
   inkscape:window-y="-8"
   inkscape:window-maximized="1"
   inkscape:current-layer="g70" />
<style
   type="text/css"
   id="style2">
	.st0{fill:#2C2C2C;}
	.st1{fill:#222222;}
	.st2{fill:#7CB2E8;}
	.st3{fill:#FF6666;}
	.st4{fill:#FF69F8;}
	.st5{fill:#40E2A0;}
	.st6{fill:#D3D3D3;}
	.st7{fill:#DDDDDD;}
	.st8{fill:#834D17;}
	.st9{fill:#009999;}
	.st10{fill:#009607;}
	.st11{fill:#BF1D5F;}
</style>
<g
   id="g12">
	<g
   id="g8">
		<path
   class="st0"
   d="M-819.7,538.3c-14.5,0-26.3-11.8-26.3-26.3s11.8-26.3,26.3-26.3s26.3,11.8,26.3,26.3    S-805.2,538.3-819.7,538.3z"
   id="path4"
   style="fill:#333333;fill-opacity:1" />
		<path
   class="st1"
   d="M-819.7,486.7c13.9,0,25.3,11.3,25.3,25.3c0,13.9-11.3,25.3-25.3,25.3S-845,525.9-845,512    C-845,498.1-833.6,486.7-819.7,486.7 M-819.7,484.7c-15,0-27.3,12.2-27.3,27.3c0,15,12.2,27.3,27.3,27.3s27.3-12.2,27.3-27.3    C-792.5,497-804.7,484.7-819.7,484.7L-819.7,484.7z"
   id="path6"
   style="fill:#181818;fill-opacity:1" />
	</g>
	<polygon
   class="st2"
   points="-805.3,499.6 -807.3,497.6 -819.7,510 -832.1,497.6 -834.1,499.6 -821.7,512 -834.1,524.4    -832.1,526.4 -819.7,514 -807.3,526.4 -805.3,524.4 -817.7,512  "
   id="polygon10"
   style="fill:#8858ed;fill-opacity:1" />
</g>
<g
   id="g22">
	<g
   id="g18">
		<path
   class="st0"
   d="M-763.2,538.2c-14.5,0-26.3-11.8-26.3-26.3c0-14.5,11.8-26.3,26.3-26.3S-737,497.5-737,512    C-737,526.5-748.7,538.2-763.2,538.2z"
   id="path14"
   style="fill:#333333;fill-opacity:1" />
		<path
   class="st1"
   d="M-763.2,486.8c13.9,0,25.3,11.3,25.3,25.3s-11.3,25.3-25.3,25.3s-25.3-11.3-25.3-25.3    S-777.1,486.8-763.2,486.8 M-763.2,484.8c-15,0-27.3,12.2-27.3,27.3s12.2,27.3,27.3,27.3S-736,527-736,512    S-748.2,484.8-763.2,484.8L-763.2,484.8z"
   id="path16"
   style="fill:#181818;fill-opacity:1" />
	</g>
	<path
   class="st3"
   d="M-763.2,493.1c-10.4,0-18.9,8.5-18.9,18.9c0,10.4,8.5,18.9,18.9,18.9s18.9-8.5,18.9-18.9   C-744.3,501.6-752.8,493.1-763.2,493.1z M-763.2,528c-8.9,0-16-7.2-16-16c0-8.9,7.2-16,16-16s16,7.2,16,16   C-747.2,520.9-754.3,528-763.2,528z"
   id="path20"
   style="fill:#8858ed;fill-opacity:1" />
<path
   style="fill:#181818;stroke-width:0.070147;fill-opacity:1"
   d="M 81.861545,54.59889 C 80.595638,54.479429 79.930084,54.395441 79.090739,54.249235 68.511637,52.406462 59.999199,44.487946 57.345616,34.021294 c -0.235233,-0.927843 -0.49517,-2.375197 -0.642498,-3.577497 -0.153208,-1.250281 -0.175834,-4.599752 -0.03909,-5.787128 0.622701,-5.407155 2.556061,-10.112458 5.865412,-14.274913 0.879113,-1.1057367 3.112258,-3.3410969 4.215431,-4.2196141 4.182421,-3.3306918 8.974395,-5.30433798 14.309987,-5.89378147 1.102933,-0.12184532 4.369165,-0.12179931 5.471466,7.716e-5 6.521269,0.7210267 12.26117,3.51465241 16.768416,8.16123651 6.53357,6.7355419 9.10528,16.2504309 6.86957,25.4162519 -1.09096,4.472631 -3.43535,8.80705 -6.56454,12.136856 -4.725014,5.027933 -10.815962,8.00595 -17.564475,8.587716 -0.763896,0.06585 -3.574201,0.08497 -4.173747,0.02839 z m 4.384188,-1.993713 C 92.145795,52.028871 97.572008,49.45612 101.76461,45.24715 109.17334,37.809499 111.1988,26.553291 106.85814,16.9405 104.94293,12.699087 101.65671,8.8528877 97.749947,6.280257 94.317144,4.019731 90.475224,2.6436739 86.386027,2.2100504 85.251814,2.0897772 82.681191,2.0712408 81.545884,2.1751487 c -4.631573,0.4239008 -9.178457,2.164094 -12.845787,4.9163676 -2.301469,1.7272154 -4.385471,3.9113207 -5.916878,6.2010907 -2.364558,3.535502 -3.724092,7.316095 -4.18132,11.627416 -0.156922,1.479663 -0.103104,4.504365 0.105148,5.909582 0.758046,5.115046 2.696704,9.393117 5.976132,13.187636 4.213744,4.875587 10.341592,8.016307 16.757484,8.588753 1.626107,0.145086 3.314292,0.144799 4.80507,-8.14e-4 z"
   id="path947"
   transform="translate(-847,484.7)" /></g>
<g
   id="g32">
	<g
   id="g28">
		<path
   class="st0"
   d="M-706.7,538.8c-14.5,0-26.3-11.8-26.3-26.3s11.8-26.3,26.3-26.3s26.3,11.8,26.3,26.3    S-692.2,538.8-706.7,538.8z"
   id="path24"
   style="fill:#333333;fill-opacity:1" />
		<path
   class="st1"
   d="M-706.7,487.4c13.9,0,25.3,11.3,25.3,25.3c0,13.9-11.3,25.3-25.3,25.3s-25.3-11.3-25.3-25.3    C-732,498.7-720.6,487.4-706.7,487.4 M-706.7,485.4c-15,0-27.3,12.2-27.3,27.3c0,15,12.2,27.3,27.3,27.3s27.3-12.2,27.3-27.3    C-679.5,497.6-691.7,485.4-706.7,485.4L-706.7,485.4z"
   id="path26"
   style="fill:#181818;fill-opacity:1" />
	</g>
	<path
   class="st4"
   d="M-695.2,498.2h-23h-2.8v2.8v23v2.8h2.8h23h2.8v-2.8v-23v-2.8H-695.2z M-695.2,524.1h-23v-23h23V524.1z"
   id="path30"
   style="fill:#8858ed;fill-opacity:1" />
</g>
<g
   id="g44">
	<g
   id="g42">
		<g
   id="g38">
			<path
   class="st0"
   d="M-650.2,539.5c-14.5,0-26.3-11.8-26.3-26.3s11.8-26.3,26.3-26.3s26.3,11.8,26.3,26.3     S-635.7,539.5-650.2,539.5z"
   id="path34"
   style="fill:#333333;fill-opacity:1" />
			<path
   class="st1"
   d="M-650.2,488c13.9,0,25.3,11.3,25.3,25.3s-11.3,25.3-25.3,25.3s-25.3-11.3-25.3-25.3S-664.1,488-650.2,488      M-650.2,486c-15,0-27.3,12.2-27.3,27.3s12.2,27.3,27.3,27.3s27.3-12.2,27.3-27.3S-635.2,486-650.2,486L-650.2,486z"
   id="path36"
   style="fill:#181818;fill-opacity:1" />
		</g>
		<path
   class="st5"
   d="M-634.2,521.3l-16-27.6l-16,27.6l-1.6,2.8l3.3,0l14.3,0l14.3,0l3.3,0L-634.2,521.3z M-650.2,521.3l-12.7,0    l12.7-21.9l12.7,21.9L-650.2,521.3z"
   id="path40"
   style="fill:#8858ed;fill-opacity:1" />
	</g>
</g>
<g
   id="g54">
	<g
   id="g50">
		<path
   class="st6"
   d="M-819.7,596.1c-14.5,0-26.3-11.8-26.3-26.3s11.8-26.3,26.3-26.3s26.3,11.8,26.3,26.3    S-805.2,596.1-819.7,596.1z"
   id="path46"
   style="fill:#8858ed;fill-opacity:1" />
		<path
   class="st7"
   d="M-819.7,544.5c13.9,0,25.3,11.3,25.3,25.3s-11.3,25.3-25.3,25.3s-25.3-11.3-25.3-25.3    S-833.6,544.5-819.7,544.5 M-819.7,542.5c-15,0-27.3,12.2-27.3,27.3s12.2,27.3,27.3,27.3s27.3-12.2,27.3-27.3    S-804.7,542.5-819.7,542.5L-819.7,542.5z"
   id="path48"
   style="fill:#512ba1;fill-opacity:1" />
	</g>
	<polygon
   class="st8"
   points="-805.3,557.4 -807.3,555.4 -819.7,567.8 -832.1,555.4 -834.1,557.4 -821.7,569.8 -834.1,582.2    -832.1,584.2 -819.7,571.8 -807.3,584.2 -805.3,582.2 -817.7,569.8  "
   id="polygon52"
   style="fill:#ffffff;fill-opacity:1" />
</g>
<g
   id="g64">
	<g
   id="g60">
		<path
   class="st6"
   d="M-763.2,595.9c-14.5,0-26.3-11.8-26.3-26.3s11.8-26.3,26.3-26.3s26.3,11.8,26.3,26.3    S-748.7,595.9-763.2,595.9z"
   id="path56"
   style="fill:#8858ed;fill-opacity:1" />
		<path
   class="st7"
   d="M-763.2,544.5c13.9,0,25.3,11.3,25.3,25.3s-11.3,25.3-25.3,25.3s-25.3-11.3-25.3-25.3    S-777.1,544.5-763.2,544.5 M-763.2,542.5c-15,0-27.3,12.2-27.3,27.3s12.2,27.3,27.3,27.3s27.3-12.2,27.3-27.3    S-748.2,542.5-763.2,542.5L-763.2,542.5z"
   id="path58"
   style="fill:#512ba1;fill-opacity:1" />
	</g>
	<path
   class="st9"
   d="M-763.2,550.8c-10.4,0-18.9,8.5-18.9,18.9c0,10.4,8.5,18.9,18.9,18.9s18.9-8.5,18.9-18.9   C-744.3,559.3-752.8,550.8-763.2,550.8z M-763.2,585.7c-8.9,0-16-7.2-16-16c0-8.9,7.2-16,16-16s16,7.2,16,16   C-747.2,578.6-754.3,585.7-763.2,585.7z"
   id="path62"
   style="fill:#ffffff;fill-opacity:1" />
</g>
<g
   id="g74">
	<g
   id="g70">
		<path
   class="st6"
   d="M-706.7,595.9c-14.5,0-26.3-11.8-26.3-26.3s11.8-26.3,26.3-26.3s26.3,11.8,26.3,26.3    S-692.2,595.9-706.7,595.9z"
   id="path66"
   style="fill:#8858ed;fill-opacity:1" />
		<path
   class="st7"
   d="M-706.7,544.5c13.9,0,25.3,11.3,25.3,25.3s-11.3,25.3-25.3,25.3s-25.3-11.3-25.3-25.3    S-720.6,544.5-706.7,544.5 M-706.7,542.5c-15,0-27.3,12.2-27.3,27.3s12.2,27.3,27.3,27.3s27.3-12.2,27.3-27.3    S-691.7,542.5-706.7,542.5L-706.7,542.5z"
   id="path68"
   style="fill:#512ba1;fill-opacity:1" />
	</g>
	<path
   class="st10"
   d="M-695.2,555.3h-23h-2.8v2.8v23v2.8h2.8h23h2.8v-2.8v-23v-2.8H-695.2z M-695.2,581.2h-23v-23h23V581.2z"
   id="path72"
   style="fill:#ffffff;fill-opacity:1" />
</g>
<g
   id="g88">
	<g
   id="g86">
		<g
   id="g84">
			<g
   id="g80">
				<path
   class="st6"
   d="M-650.2,596c-14.5,0-26.3-11.8-26.3-26.3s11.8-26.3,26.3-26.3s26.3,11.8,26.3,26.3S-635.7,596-650.2,596z"
   id="path76"
   style="fill:#8858ed;fill-opacity:1" />
				<path
   class="st7"
   d="M-650.2,544.5c13.9,0,25.3,11.3,25.3,25.3s-11.3,25.3-25.3,25.3s-25.3-11.3-25.3-25.3      S-664.1,544.5-650.2,544.5 M-650.2,542.5c-15,0-27.3,12.2-27.3,27.3s12.2,27.3,27.3,27.3s27.3-12.2,27.3-27.3      S-635.2,542.5-650.2,542.5L-650.2,542.5z"
   id="path78"
   style="fill:#512ba1;fill-opacity:1" />
			</g>
			<path
   class="st11"
   d="M-634.2,577.7l-16-27.6l-16,27.6l-1.6,2.8l3.3,0l14.3,0l14.3,0l3.3,0L-634.2,577.7z M-650.2,577.7l-12.7,0     l12.7-21.9l12.7,21.9L-650.2,577.7z"
   id="path82"
   style="fill:#ffffff;fill-opacity:1" />
		</g>
	</g>
</g>
</svg>
