<?xml version="1.0" encoding="UTF-8" standalone="no"?>
<!-- Generator: Adobe Illustrator 19.0.1, SVG Export Plug-In . SVG Version: 6.00 Build 0)  -->

<svg
   version="1.1"
   id="Layer_1"
   x="0px"
   y="0px"
   width="286px"
   height="94px"
   viewBox="-816 494 286 94"
   style="enable-background:new -816 494 286 94;"
   xml:space="preserve"
   sodipodi:docname="sticks.svg"
   inkscape:version="1.1 (c68e22c387, 2021-05-23)"
   xmlns:inkscape="http://www.inkscape.org/namespaces/inkscape"
   xmlns:sodipodi="http://sodipodi.sourceforge.net/DTD/sodipodi-0.dtd"
   xmlns="http://www.w3.org/2000/svg"
   xmlns:svg="http://www.w3.org/2000/svg"><defs
   id="defs59" /><sodipodi:namedview
   id="namedview57"
   pagecolor="#ffffff"
   bordercolor="#666666"
   borderopacity="1.0"
   inkscape:pageshadow="2"
   inkscape:pageopacity="0.0"
   inkscape:pagecheckerboard="0"
   showgrid="false"
   inkscape:zoom="2.8284271"
   inkscape:cx="145.13367"
   inkscape:cy="50.734912"
   inkscape:window-width="1920"
   inkscape:window-height="1017"
   inkscape:window-x="-8"
   inkscape:window-y="-8"
   inkscape:window-maximized="1"
   inkscape:current-layer="g8" />
<style
   type="text/css"
   id="style2">
	.st0{fill:#C1272D;}
	.st1{fill:#CF2A32;}
	.st2{fill:#E02D39;}
	.st3{fill:#3ED8D2;}
	.st4{fill:#30D5CD;}
	.st5{fill:#1FD2C6;}
</style>
<g
   id="g54">
	<g
   id="g16">
		<g
   id="g14">
			<g
   id="g10">
				<path
   class="st0"
   d="M-769,586.5c-25.1,0-45.5-20.4-45.5-45.5s20.4-45.5,45.5-45.5s45.5,20.4,45.5,45.5S-743.9,586.5-769,586.5z      "
   id="path4"
   style="fill:#512ba1;fill-opacity:1" />
				<g
   id="g8">
					<path
   class="st1"
   d="M-769,497c24.3,0,44,19.7,44,44s-19.7,44-44,44s-44-19.7-44-44S-793.3,497-769,497 M-769,494       c-26,0-47,21-47,47s21,47,47,47s47-21,47-47S-743,494-769,494L-769,494z"
   id="path6"
   style="fill:#a378ff;fill-opacity:1" />
				</g>
			</g>
			<circle
   class="st2"
   cx="-769"
   cy="541"
   r="27.3"
   id="circle12"
   style="fill:#8858ed;fill-opacity:1" />
		</g>
	</g>
	<g
   id="g34">
		<g
   id="g24">
			<path
   class="st3"
   d="M-673,586.5c-25.1,0-45.5-20.4-45.5-45.5s20.4-45.5,45.5-45.5s45.5,20.4,45.5,45.5S-647.9,586.5-673,586.5z"
   id="path18"
   style="fill:#f7f7f7;fill-opacity:1" />
			<g
   id="g22">
				<path
   class="st4"
   d="M-673,497c24.3,0,44,19.7,44,44s-19.7,44-44,44s-44-19.7-44-44S-697.3,497-673,497 M-673,494      c-26,0-47,21-47,47s21,47,47,47s47-21,47-47S-647,494-673,494L-673,494z"
   id="path20"
   style="fill:#dddddd;fill-opacity:1" />
			</g>
		</g>
		<circle
   class="st5"
   cx="-673"
   cy="541"
   id="circle26"
   r="27.299999"
   style="fill:#dddddd;fill-opacity:1" />
		
	</g>
	<g
   id="g52">
		<g
   id="g42">
			<path
   class="st3"
   d="M-577,586.5c-25.1,0-45.5-20.4-45.5-45.5s20.4-45.5,45.5-45.5s45.5,20.4,45.5,45.5S-551.9,586.5-577,586.5z"
   id="path36"
   style="fill:#f7f7f7;fill-opacity:1" />
			<g
   id="g40">
				<path
   class="st4"
   d="M-577,497c24.3,0,44,19.7,44,44s-19.7,44-44,44s-44-19.7-44-44S-601.3,497-577,497 M-577,494      c-26,0-47,21-47,47s21,47,47,47s47-21,47-47S-551,494-577,494L-577,494z"
   id="path38"
   style="fill:#dddddd;fill-opacity:1" />
			</g>
		</g>
		<circle
   class="st5"
   cx="-577"
   cy="541"
   r="27.3"
   id="circle44"
   style="fill:#dddddd;fill-opacity:1" />
		
	</g>
</g>
</svg>
