<?xml version="1.0" encoding="UTF-8" standalone="no"?>
<!-- Generator: Adobe Illustrator 19.0.1, SVG Export Plug-In . SVG Version: 6.00 Build 0)  -->

<svg
   version="1.1"
   id="Layer_1"
   x="0px"
   y="0px"
   width="263.9px"
   height="151.2px"
   viewBox="-955.6 461.6 263.9 151.2"
   style="enable-background:new -955.6 461.6 263.9 151.2;"
   xml:space="preserve"
   sodipodi:docname="touchpad.svg"
   inkscape:version="1.1 (c68e22c387, 2021-05-23)"
   xmlns:inkscape="http://www.inkscape.org/namespaces/inkscape"
   xmlns:sodipodi="http://sodipodi.sourceforge.net/DTD/sodipodi-0.dtd"
   xmlns:xlink="http://www.w3.org/1999/xlink"
   xmlns="http://www.w3.org/2000/svg"
   xmlns:svg="http://www.w3.org/2000/svg"><defs
   id="defs27"><style
     id="style1475">.cls-1{fill:#f19233;fill-rule:evenodd;}.cls-2{fill:#f7f7f7;}</style></defs><sodipodi:namedview
   id="namedview25"
   pagecolor="#ffffff"
   bordercolor="#666666"
   borderopacity="1.0"
   inkscape:pageshadow="2"
   inkscape:pageopacity="0.0"
   inkscape:pagecheckerboard="0"
   showgrid="false"
   inkscape:zoom="2.1390679"
   inkscape:cx="113.83463"
   inkscape:cy="55.865454"
   inkscape:window-width="1920"
   inkscape:window-height="1017"
   inkscape:window-x="-8"
   inkscape:window-y="-8"
   inkscape:window-maximized="1"
   inkscape:current-layer="g1503" />
<style
   type="text/css"
   id="style2">
	.st0{fill:none;}
	.st1{fill:#61E0DF;}
	.st2{fill:#3ED8D2;}
	.st3{opacity:0.2;}
	.st4{fill:url(#SVGID_1_);}
</style>
<pattern
   x="-910"
   y="552"
   width="71"
   height="71"
   patternUnits="userSpaceOnUse"
   id="Dots_white_2"
   viewBox="0 -71 71 71"
   style="overflow:visible;">
	<g
   id="g8">
		<polygon
   class="st0"
   points="0,-71 71,-71 71,0 0,0   "
   id="polygon4" />
		<path
   d="M41.8-35.5c0,3.5-2.8,6.3-6.3,6.3c-3.5,0-6.3-2.8-6.3-6.3s2.8-6.3,6.3-6.3C39-41.8,41.8-39,41.8-35.5z"
   id="path6" />
	</g>
</pattern>
<g
   id="g22">
	<path
   class="st1"
   d="M-691.8,467.2c-0.4-3.2-3.3-5.6-6.5-5.6l0,0h-125.3h0h-125.3l0,0c-3.2,0-6.1,2.3-6.5,5.6   c-0.1,0.7-0.1,1.4-0.1,2.1v127.4c0,8.9,7.2,16.1,16.1,16.1h115.8h0h115.8c8.9,0,16.1-7.2,16.1-16.1V469.3   C-691.7,468.5-691.8,467.8-691.8,467.2z"
   id="path11"
   style="fill:#f7f7f7;fill-opacity:1" />
	<g
   id="g20">
		<path
   class="st2"
   d="M-696.2,463.5c0-1-0.8-1.9-1.9-1.9h-125.6h0h-125.6c-1,0-1.9,0.8-1.9,1.9l0,6v123.2c0,8.6,7,15.6,15.6,15.6    h111.9h0h111.9c8.6,0,15.6-7,15.6-15.6V469.5L-696.2,463.5z"
   id="path13"
   style="fill:#dddddd;fill-opacity:1" />
		<g
   class="st3"
   id="g18">
			
				<pattern
   id="SVGID_1_"
   xlink:href="#Dots_white_2"
   patternTransform="matrix(0.1017 0 0 0.1017 -7232.3452 -7295.9248)"
   class="st3">
			</pattern>
			<path
   class="st4"
   d="M-951.1,592.7c0,8.6,7,15.6,15.6,15.6h111.9h0h111.9c8.6,0,15.6-7,15.6-15.6V486.1h-254.9V592.7z"
   id="path16" />
		</g>
	</g>
</g>
<g
   id="g1503"
   transform="matrix(0.15406825,0,0,0.15406825,-976.86503,493.89126)" /></svg>
