<?xml version="1.0" encoding="utf-8"?>
<!-- Generator: Adobe Illustrator 22.1.0, SVG Export Plug-In . SVG Version: 6.00 Build 0)  -->
<svg version="1.1" id="Ebene_1" xmlns="http://www.w3.org/2000/svg" xmlns:xlink="http://www.w3.org/1999/xlink" x="0px" y="0px"
	 viewBox="0 0 512 512" style="enable-background:new 0 0 512 512;" xml:space="preserve">
<style type="text/css">
	.st0{fill:#FA0014;}
	.st1{fill:#FFFFFF;}
</style>
<path class="st0" d="M421.7,355.3c0,9.4-7.7,17-17,17H107.8c-9.4,0-17-7.7-17-17V58.4c0-9.4,7.7-17,17-17h296.9c9.4,0,17,7.7,17,17
	V355.3z"/>
<g>
	<g>
		<path class="st1" d="M378,128.7c0,0,10.7,2.7,19.5,11.3c0,0-34.3-83-141-83c-36,0-55.9,7.7-55.9,7.7s13.2-0.3,26.6,2.3
			c0,0-27.7,1.8-45.9,16.3c0,0,0.5-10.7,10.1-20.7c0,0-78.5,31.4-78.5,142.4c0,20.4,6.3,104.1,86.1,136.1c0,0-13.3-10.9-17.3-20.2
			c0,0,16,14.7,45.5,20c0,0-6.7,8-23.2,9.4c0,0,17.5,6.3,44.5,6.3c86.2,0,151-65.9,151-147C399.5,152.8,378,128.7,378,128.7z
			 M302.4,328.8c0,0,7.9-9,10.4-17.5c0,0-23.3,15.1-56.3,15.1c-104.2,0-131.9-82.1-131.9-124.4c0-34.1,12.6-56.7,12.6-56.7
			s-0.7,11.5,3.2,24.7c0,0,23.7-94.8,116.2-94.8c41.7,0,54.1,8.8,54.1,8.8s-11.4,0.7-19.4,5.5c0,0,94.3,19.7,94.3,127.9
			C385.5,236.4,382,297.5,302.4,328.8z"/>
	</g>
	<g id="augen3">
		<g id="augen1_2_">
			<path class="st1" d="M259.8,252.6c19.5,16.3-12.6,14.9-30.4,15.2c-16.8,0.2-24,0-35.4-13.9c-10.6-13-9.2-30.4,7.6-30.4
				C217.9,223.5,244.3,239.7,259.8,252.6z"/>
		</g>
		<g id="augen1_3_">
			<path class="st1" d="M286.9,251.4c-15.5,13,10.8,12.1,24.2,12.1s19.1,0,28.2-11.1c8.5-10.3,7.3-24.2-6-24.2
				C320.3,228.3,299.2,241.1,286.9,251.4z"/>
		</g>
	</g>
</g>
<g>
	<path class="st1" d="M227,388.7l-57.2,0V454h20.4v-16.3c0,0,22,0,36.8,0c16.3,0,16.3-16.4,16.3-16.4V405
		C243.3,405,243.3,388.7,227,388.7z M218.8,421.3c-5.8,0-28.6,0-28.6,0V405c0,0,22.8,0,28.6,0c5.4,0,5.4,8.2,5.4,8.2
		S224.2,421.3,218.8,421.3z"/>
	<path class="st1" d="M164.3,437.7c0,0-37.9-0.2-40.9-0.2c-10.9,0-10.9-16.2-10.9-16.2s0-16.4,10.9-16.3h40.9v-16.3c0,0-34.5,0-49,0
		c-24.5,0-24.5,24.5-24.5,24.5l0,16.3c0,0,0,24.5,24.5,24.5c15.6,0,49,0,49,0V437.7z"/>
	<path class="st1" d="M248.8,388.7V439c0,0,0,15,16.3,15h4.1v-65.4H248.8z"/>
	<path class="st1" d="M330.5,388.7h-53.1V405c0,0,31.5,0,40.9,0c8.2,0,8.2,8.2,8.2,8.2s-29.3,0-36.8,0c-16.3,0-16.3,16.3-16.3,16.3
		v8.2c0,0,0,16.4,16.3,16.4h57.2v-49C346.8,405,346.8,388.7,330.5,388.7z M326.4,437.7c0,0-27.2,0-31.3,0c-4.1,0-4.1-4.1-4.1-4.1
		s0-4.1,4.1-4.1c4.1,0,31.3,0,31.3,0V437.7z"/>
	<path class="st1" d="M372.7,478.5v-16.3l21.8,0c8.2,0,8.2-8.1,8.2-8.1h-25.9c-24.5,0-24.5-24.5-24.5-24.5v-40.9h20.4l0,40.9
		c0,8.2,8.2,8.2,8.2,8.2h20.4v-49h20.4V454c0,24.5-24.5,24.5-24.5,24.5L372.7,478.5z"/>
</g>
</svg>
