<?xml version="1.0" encoding="UTF-8" standalone="no"?>
<!-- Generator: Adobe Illustrator 19.0.1, SVG Export Plug-In . SVG Version: 6.00 Build 0)  -->

<svg
   version="1.1"
   id="Layer_1"
   x="0px"
   y="0px"
   width="98.9px"
   height="22.4px"
   viewBox="-910 529.6 98.9 22.4"
   style="enable-background:new -910 529.6 98.9 22.4;"
   xml:space="preserve"
   sodipodi:docname="bumper.svg"
   inkscape:version="1.1 (c68e22c387, 2021-05-23)"
   xmlns:inkscape="http://www.inkscape.org/namespaces/inkscape"
   xmlns:sodipodi="http://sodipodi.sourceforge.net/DTD/sodipodi-0.dtd"
   xmlns="http://www.w3.org/2000/svg"
   xmlns:svg="http://www.w3.org/2000/svg"><defs
   id="defs17" /><sodipodi:namedview
   id="namedview15"
   pagecolor="#ffffff"
   bordercolor="#666666"
   borderopacity="1.0"
   inkscape:pageshadow="2"
   inkscape:pageopacity="0.0"
   inkscape:pagecheckerboard="0"
   showgrid="false"
   inkscape:zoom="11.415571"
   inkscape:cx="49.450001"
   inkscape:cy="11.168955"
   inkscape:window-width="1920"
   inkscape:window-height="1017"
   inkscape:window-x="-8"
   inkscape:window-y="-8"
   inkscape:window-maximized="1"
   inkscape:current-layer="g8" />
<style
   type="text/css"
   id="style2">
	.st0{fill:#61E0DF;}
	.st1{fill:#3ED8D2;}
</style>
<g
   id="g12">
	<g
   id="g10">
		<g
   id="g8">
			<path
   class="st0"
   d="M-910,545.1c0-0.8,0.4-1.5,1.1-1.9c4.5-2.9,23.4-13.6,51.5-13.6c26.9,0,41.1,5.9,45.1,8     c0.8,0.4,1.2,1.2,1.2,2c0,0-9.8-2.9-47.5-2.9C-896.4,536.7-910,545.1-910,545.1z"
   id="path4"
   style="fill:#f7f7f7;fill-opacity:1" />
			<path
   class="st1"
   d="M-910,552L-910,552l0-6.9c0,0,13.7-8.4,51.4-8.4c37.8,0,47.5,2.9,47.5,2.9v11l0,0     c-7.7-1.3-21.2-2.6-44.1-2.6C-883.7,548-901.1,550.3-910,552z"
   id="path6"
   style="fill:#dddddd;fill-opacity:1" />
		</g>
	</g>
</g>
</svg>
