<?xml version="1.0" encoding="UTF-8" standalone="no"?>
<!-- Generator: Adobe Illustrator 19.0.1, SVG Export Plug-In . SVG Version: 6.00 Build 0)  -->

<svg
   version="1.1"
   id="Layer_1"
   x="0px"
   y="0px"
   width="28.4px"
   height="46.7px"
   viewBox="-945 517.3 28.4 46.7"
   style="enable-background:new -945 517.3 28.4 46.7;"
   xml:space="preserve"
   sodipodi:docname="start.svg"
   inkscape:version="1.1 (c68e22c387, 2021-05-23)"
   xmlns:inkscape="http://www.inkscape.org/namespaces/inkscape"
   xmlns:sodipodi="http://sodipodi.sourceforge.net/DTD/sodipodi-0.dtd"
   xmlns="http://www.w3.org/2000/svg"
   xmlns:svg="http://www.w3.org/2000/svg"><defs
   id="defs13" /><sodipodi:namedview
   id="namedview11"
   pagecolor="#ffffff"
   bordercolor="#666666"
   borderopacity="1.0"
   inkscape:pageshadow="2"
   inkscape:pageopacity="0.0"
   inkscape:pagecheckerboard="0"
   showgrid="false"
   inkscape:zoom="17.815846"
   inkscape:cx="14.172777"
   inkscape:cy="23.378065"
   inkscape:window-width="1920"
   inkscape:window-height="1017"
   inkscape:window-x="-8"
   inkscape:window-y="-8"
   inkscape:window-maximized="1"
   inkscape:current-layer="g8" />
<style
   type="text/css"
   id="style2">
	.st0{fill:#FFFFFF;}
	.st1{fill:#3ED8D2;}
</style>
<g
   id="g8">
	<path
   class="st0"
   d="M-930.8,519c6.9,0,12.5,5.6,12.5,12.5v18.3c0,6.9-5.6,12.5-12.5,12.5s-12.5-5.6-12.5-12.5v-18.3   C-943.3,524.6-937.7,519-930.8,519 M-930.8,517.3c-7.8,0-14.2,6.4-14.2,14.2v18.3c0,7.8,6.4,14.2,14.2,14.2s14.2-6.4,14.2-14.2   v-18.3C-916.6,523.7-923,517.3-930.8,517.3L-930.8,517.3z"
   id="path4" />
	<path
   class="st1"
   d="M-930.8,519c-6.9,0-12.5,5.6-12.5,12.5v18.3c0,6.9,5.6,12.5,12.5,12.5s12.5-5.6,12.5-12.5v-18.3   C-918.3,524.6-923.9,519-930.8,519z"
   id="path6"
   style="fill:#f7f7f7;fill-opacity:1" />
</g>
</svg>
