<?xml version="1.0" encoding="UTF-8" standalone="no"?>
<!-- Generator: Adobe Illustrator 19.0.1, SVG Export Plug-In . SVG Version: 6.00 Build 0)  -->

<svg
   version="1.1"
   id="Layer_1"
   x="0px"
   y="0px"
   width="263.9px"
   height="151.2px"
   viewBox="-955.6 461.6 263.9 151.2"
   style="enable-background:new -955.6 461.6 263.9 151.2;"
   xml:space="preserve"
   sodipodi:docname="touchpad.svg"
   inkscape:version="1.1 (c68e22c387, 2021-05-23)"
   xmlns:inkscape="http://www.inkscape.org/namespaces/inkscape"
   xmlns:sodipodi="http://sodipodi.sourceforge.net/DTD/sodipodi-0.dtd"
   xmlns:xlink="http://www.w3.org/1999/xlink"
   xmlns="http://www.w3.org/2000/svg"
   xmlns:svg="http://www.w3.org/2000/svg"><defs
   id="defs27"><style
     id="style1475">.cls-1{fill:#f19233;fill-rule:evenodd;}.cls-2{fill:#f7f7f7;}</style></defs><sodipodi:namedview
   id="namedview25"
   pagecolor="#ffffff"
   bordercolor="#666666"
   borderopacity="1.0"
   inkscape:pageshadow="2"
   inkscape:pageopacity="0.0"
   inkscape:pagecheckerboard="0"
   showgrid="false"
   inkscape:zoom="2.1390679"
   inkscape:cx="113.83463"
   inkscape:cy="55.865455"
   inkscape:window-width="1920"
   inkscape:window-height="1017"
   inkscape:window-x="-8"
   inkscape:window-y="-8"
   inkscape:window-maximized="1"
   inkscape:current-layer="Layer_1" />
<style
   type="text/css"
   id="style2">
	.st0{fill:none;}
	.st1{fill:#61E0DF;}
	.st2{fill:#3ED8D2;}
	.st3{opacity:0.2;}
	.st4{fill:url(#SVGID_1_);}
</style>
<pattern
   x="-910"
   y="552"
   width="71"
   height="71"
   patternUnits="userSpaceOnUse"
   id="Dots_white_2"
   viewBox="0 -71 71 71"
   style="overflow:visible;">
	<g
   id="g8">
		<polygon
   class="st0"
   points="0,-71 71,-71 71,0 0,0   "
   id="polygon4" />
		<path
   d="M41.8-35.5c0,3.5-2.8,6.3-6.3,6.3c-3.5,0-6.3-2.8-6.3-6.3s2.8-6.3,6.3-6.3C39-41.8,41.8-39,41.8-35.5z"
   id="path6" />
	</g>
</pattern>
<g
   id="g22">
	<path
   class="st1"
   d="M-691.8,467.2c-0.4-3.2-3.3-5.6-6.5-5.6l0,0h-125.3h0h-125.3l0,0c-3.2,0-6.1,2.3-6.5,5.6   c-0.1,0.7-0.1,1.4-0.1,2.1v127.4c0,8.9,7.2,16.1,16.1,16.1h115.8h0h115.8c8.9,0,16.1-7.2,16.1-16.1V469.3   C-691.7,468.5-691.8,467.8-691.8,467.2z"
   id="path11"
   style="fill:#f7f7f7;fill-opacity:1" />
	<g
   id="g20">
		<path
   class="st2"
   d="M-696.2,463.5c0-1-0.8-1.9-1.9-1.9h-125.6h0h-125.6c-1,0-1.9,0.8-1.9,1.9l0,6v123.2c0,8.6,7,15.6,15.6,15.6    h111.9h0h111.9c8.6,0,15.6-7,15.6-15.6V469.5L-696.2,463.5z"
   id="path13"
   style="fill:#dddddd;fill-opacity:1" />
		<g
   class="st3"
   id="g18">
			
				<pattern
   id="SVGID_1_"
   xlink:href="#Dots_white_2"
   patternTransform="matrix(0.1017 0 0 0.1017 -7232.3452 -7295.9248)"
   class="st3">
			</pattern>
			<path
   class="st4"
   d="M-951.1,592.7c0,8.6,7,15.6,15.6,15.6h111.9h0h111.9c8.6,0,15.6-7,15.6-15.6V486.1h-254.9V592.7z"
   id="path16" />
		</g>
	</g>
</g>
<g
   id="g1503"
   transform="matrix(0.15406825,0,0,0.15406825,-976.86503,493.89126)"><path
     class="cls-1"
     d="m 439.57146,452.78633 a 14.28,14.28 0 0 1 -20.17,0 l -25.17,-25.19 -62.9,-62.87 c -54,-54 -54,-142.32 0,-196.3 l 6.26,-6.27 a 11,11 0 0 0 0,-15.51 l -12.52,-12.49 a 11,11 0 0 0 -15.52,0 l -6.26,6.26 c -69.41,69.41 -69.41,183 0,252.4 l 110.55,110.49 c 11.9,11.91 20.07,11.22 31.28,0 q 55.28,-55.29 110.55,-110.54 c 69.41,-69.41 69.41,-183 0,-252.4 l -6.26,-6.21 a 11,11 0 0 0 -15.51,0 l -12.53,12.53 a 11,11 0 0 0 0,15.51 l 6.26,6.27 c 54,54 54,142.32 0,196.3 l -27.51,27.52 -60.55,60.54 m 60,-256.33 c 38.56,38.56 38.57,101.66 0,140.23 l -6.14,6.13 -51.16,51.17 a 18.18,18.18 0 0 1 -25.62,0 l -57.3,-57.3 c -38.56,-38.57 -38.55,-101.67 0,-140.23 l 6.26,-6.25 a 11,11 0 0 1 15.52,0 l 12.52,12.52 a 11,11 0 0 1 0,15.51 l -6.27,6.27 a 59.66,59.66 0 0 0 0,84.13 l 29.25,29.26 a 18.17,18.17 0 0 0 25.62,0 l 29.25,-29.26 a 57.57,57.57 0 0 0 4.91,-5.56 59.7,59.7 0 0 0 -4.91,-78.57 l -70.1,-70.1 q -10,-10.05 -20.08,-20.08 a 51.09,51.09 0 0 1 0,-71.999996 q 16.25,-16.24 32.48,-32.48 c 11.9,-11.9 20.07,-11.22 31.28,0 l 26.46,26.37 34.31,34.3 a 11,11 0 0 1 -0.37,15.879996 c -3.94,3.93 -7.85,7.84 -11.78,11.78 a 11,11 0 0 1 -15.89,0.38 l -42.12,-42.109996 a 8.79,8.79 0 0 0 -12.43,0 l -9.58,9.57 a 17.38,17.38 0 0 0 0,24.489996 q 7.91,7.91 15.8,15.8 l 70.1,70.1"
     id="path1481" /><path
     class="cls-2"
     d="m 865.78146,318.61633 c 0,-26.07 -21.25,-30.9 -43,-37.55 -42.08,-12.68 -66.55,-24.67 -66.55,-68.66 0,-49.53 29.6,-65.54 82.76,-65.54 a 343.76,343.76 0 0 1 55.81,5 9.57,9.57 0 0 1 7.9,10.54 l -1.47,12.84 a 9.58,9.58 0 0 1 -10.82,8.39 c -12.71,-1.73 -26.87,-3.25 -40.34,-3.25 -19.84,0 -53,0.71 -53,27.69 0,27.79 18.73,31.11 46.92,38.76 42.69,11.58 64,27.59 64,70.58 0,50.54 -31,68.86 -85.88,68.86 a 316.17,316.17 0 0 1 -56.51,-4.92 9.6,9.6 0 0 1 -7.86,-10.59 l 1.69,-13.94 a 9.56,9.56 0 0 1 10.66,-8.35 c 16.34,2 36,3.67 51,3.67 26.58,0 44.61,-5.54 44.61,-33.53"
     id="path1483"
     style="fill:#f19233;fill-opacity:1" /><path
     class="cls-2"
     d="m 1074.4915,374.28633 v -87.13 a 6.7,6.7 0 0 0 -6.7,-6.7 h -74.80004 a 6.7,6.7 0 0 0 -6.71,6.7 v 87.12 a 9.57,9.57 0 0 1 -9.57,9.57 h -21.83 a 9.57,9.57 0 0 1 -9.58,-9.57 v -215.42 a 9.57,9.57 0 0 1 9.58,-9.57 h 21.83 a 9.57,9.57 0 0 1 9.57,9.57 v 81.88 a 6.7,6.7 0 0 0 6.71,6.7 h 74.80004 a 6.7,6.7 0 0 0 6.7,-6.7 v -81.88 a 9.57,9.57 0 0 1 9.58,-9.57 h 22 a 9.57,9.57 0 0 1 9.58,9.57 v 215.43 a 9.57,9.57 0 0 1 -9.58,9.57 h -22 a 9.57,9.57 0 0 1 -9.58,-9.57"
     id="path1485"
     style="fill:#f19233;fill-opacity:1" /><path
     class="cls-2"
     d="m 1162.5015,383.85633 a 9.58,9.58 0 0 1 -9.07,-12.7 l 66.8,-196.3 c 6.55,-19.23 18.93,-28 35.24,-28 16.11,0 28.59,8.76 35,28 l 65.76,196.39 a 9.58,9.58 0 0 1 -9.08,12.61 h -23.19 a 9.59,9.59 0 0 1 -9.13,-6.67 l -16.22,-51 a 6.71,6.71 0 0 0 -6.39,-4.67 h -76.55 a 6.7,6.7 0 0 0 -6.4,4.7 l -16,50.91 a 9.57,9.57 0 0 1 -9.04,6.73 z m 122.08,-102 -24.51,-77.12 a 6.71,6.71 0 0 0 -12.79,0 l -24.15,77.19 a 6.7,6.7 0 0 0 6.4,8.7 h 48.7 a 6.7,6.7 0 0 0 6.39,-8.73"
     id="path1487"
     style="fill:#f19233;fill-opacity:1" /><path
     class="cls-2"
     d="m 1424.7715,383.85633 h -21.72 a 9.57,9.57 0 0 1 -9.58,-9.57 v -210 a 13.18,13.18 0 0 1 11.35,-13.13 475,475 0 0 1 63.55,-4.33 c 51.65,0 93.33,10.27 93.33,73.19 0,61.21 -37.45,74.5 -90.61,74.5 -12,0 -26.07,-0.6 -36.74,-1.21 v 80.94 a 9.57,9.57 0 0 1 -9.58,9.57 m 9.58,-128.47 a 6.7,6.7 0 0 0 6.1,6.69 c 9.25,0.8 18.52,0.87 27.92,0.87 33.83,0 52.76,-8.66 52.76,-42.89 0,-29.9 -12.89,-41.68 -51.55,-41.68 a 281.82,281.82 0 0 0 -29.27,1.6 6.7,6.7 0 0 0 -6,6.67 z"
     id="path1489"
     style="fill:#f19233;fill-opacity:1" /><path
     class="cls-2"
     d="m 1688.3115,181.39633 c -32.72,0 -38.26,6.54 -38.26,36.34 v 24.11 a 6.7,6.7 0 0 0 6.71,6.7 h 80.37 a 9.58,9.58 0 0 1 9.57,9.58 v 12.76 a 9.58,9.58 0 0 1 -9.57,9.58 h -80.37 a 6.7,6.7 0 0 0 -6.71,6.7 v 28.23 c 0,29.8 5.54,36.35 38.26,36.35 h 53.35 a 9.57,9.57 0 0 1 9.57,9.57 v 12.36 a 9.57,9.57 0 0 1 -9.19,9.57 c -16.88,0.65 -39,1.22 -52.72,1.22 -41.58,0 -80.14,-2.22 -80.14,-55.38 v -125 c 0,-53.16 38.56,-55.37 80.14,-55.37 13.72,0 35.84,0.56 52.72,1.22 a 9.57,9.57 0 0 1 9.19,9.57 v 12.35 a 9.58,9.58 0 0 1 -9.57,9.58 z"
     id="path1491"
     style="fill:#f19233;fill-opacity:1" /></g></svg>
